<svg width="20" height="20" viewBox="0 0 20 20" fill="none" xmlns="http://www.w3.org/2000/svg">
<path d="M15.9914 19.4158H4.00863C2.35277 19.4158 1 18.063 1 16.4071V4.4244C1 2.76854 2.35277 1.41577 4.00863 1.41577H15.9914C17.6472 1.41577 19 2.76854 19 4.4244V16.4071C19 18.0704 17.6546 19.4158 15.9914 19.4158Z" stroke="#fff"/>
<path d="M6.73635 13.6868C7.60863 14.5591 8.7692 15.0396 10.0037 15.0396C11.2382 15.0396 12.3914 14.5591 13.271 13.6868C14.1433 12.8145 14.6238 11.6539 14.6238 10.4194C14.6238 9.18494 14.1433 8.02437 13.271 7.15209C12.3988 6.27981 11.2382 5.79932 10.0037 5.79932C8.7692 5.79932 7.60863 6.27981 6.73635 7.15209C5.86407 8.02437 5.38358 9.18494 5.38358 10.4194C5.38358 11.6539 5.86407 12.8145 6.73635 13.6868Z" stroke="#fff"/>
<path d="M15.5244 5.64746C16.0143 5.64746 16.4115 5.2503 16.4115 4.76038C16.4115 4.27045 16.0143 3.87329 15.5244 3.87329C15.0344 3.87329 14.6373 4.27045 14.6373 4.76038C14.6373 5.2503 15.0344 5.64746 15.5244 5.64746Z" stroke="#fff"/>
</svg>
