<svg width="19" height="18" viewBox="0 0 19 18" fill="none" xmlns="http://www.w3.org/2000/svg">
<path d="M17 12.69V14.94C17.0009 15.1488 16.9581 15.3556 16.8744 15.547C16.7907 15.7383 16.668 15.9101 16.5141 16.0513C16.3601 16.1926 16.1784 16.3001 15.9806 16.367C15.7827 16.4339 15.573 16.4588 15.365 16.44C13.0571 16.1892 10.8403 15.4006 8.8925 14.1375C7.08037 12.9859 5.54401 11.4496 4.3925 9.63745C3.12499 7.68085 2.33619 5.4532 2.09 3.13495C2.07126 2.92755 2.09591 2.71852 2.16238 2.52117C2.22885 2.32382 2.33568 2.14247 2.47608 1.98867C2.61647 1.83487 2.78736 1.71198 2.97785 1.62784C3.16834 1.5437 3.37426 1.50015 3.5825 1.49995H5.8325C6.19648 1.49637 6.54935 1.62526 6.82532 1.8626C7.1013 2.09994 7.28156 2.42954 7.3325 2.78995C7.42747 3.51 7.60359 4.217 7.8575 4.89745C7.95841 5.16589 7.98025 5.45764 7.92043 5.73811C7.86062 6.01858 7.72165 6.27603 7.52 6.47995L6.5675 7.43245C7.63517 9.31011 9.18984 10.8648 11.0675 11.9325L12.02 10.98C12.2239 10.7783 12.4814 10.6393 12.7618 10.5795C13.0423 10.5197 13.3341 10.5415 13.6025 10.6425C14.283 10.8964 14.99 11.0725 15.71 11.1675C16.0743 11.2188 16.4071 11.4024 16.6449 11.6831C16.8828 11.9638 17.0091 12.3221 17 12.69Z" stroke="#131414" stroke-linecap="round" stroke-linejoin="round"/>
</svg>
