<svg width="98" height="21" viewBox="0 0 98 21" fill="none" xmlns="http://www.w3.org/2000/svg">
<path d="M8.84714 3.49245C9.14289 2.56366 10.4571 2.56366 10.7529 3.49245L11.7784 6.71324C11.9105 7.12811 12.2959 7.40983 12.7313 7.40983H16.0924C17.0562 7.40983 17.4622 8.63914 16.6879 9.21315L13.9342 11.2547C13.5908 11.5093 13.4472 11.954 13.5769 12.3614L14.6205 15.6388C14.915 16.5636 13.8518 17.3236 13.0721 16.7455L10.3956 14.7612C10.0418 14.4989 9.55818 14.4989 9.20445 14.7612L6.52791 16.7455C5.74818 17.3236 4.68499 16.5636 4.9795 15.6388L6.02308 12.3614C6.15279 11.954 6.0092 11.5093 5.66577 11.2547L2.91206 9.21315C2.1378 8.63914 2.54379 7.40983 3.50761 7.40983H6.86871C7.30411 7.40983 7.68947 7.12811 7.82157 6.71324L8.84714 3.49245Z" fill="#3A3B3B"/>
<path d="M28.4471 3.49245C28.7429 2.56366 30.0571 2.56366 30.3529 3.49245L31.3784 6.71324C31.5105 7.12811 31.8959 7.40983 32.3313 7.40983H35.6924C36.6562 7.40983 37.0622 8.63914 36.2879 9.21315L33.5342 11.2547C33.1908 11.5093 33.0472 11.954 33.1769 12.3614L34.2205 15.6388C34.515 16.5636 33.4518 17.3236 32.6721 16.7455L29.9956 14.7612C29.6418 14.4989 29.1582 14.4989 28.8044 14.7612L26.1279 16.7455C25.3482 17.3236 24.285 16.5636 24.5795 15.6388L25.6231 12.3614C25.7528 11.954 25.6092 11.5093 25.2658 11.2547L22.5121 9.21315C21.7378 8.63914 22.1438 7.40983 23.1076 7.40983H26.4687C26.9041 7.40983 27.2895 7.12811 27.4216 6.71324L28.4471 3.49245Z" fill="#3A3B3B"/>
<path d="M48.0471 3.49245C48.3429 2.56366 49.6571 2.56366 49.9529 3.49245L50.9784 6.71324C51.1105 7.12811 51.4959 7.40983 51.9313 7.40983H55.2924C56.2562 7.40983 56.6622 8.63914 55.8879 9.21315L53.1342 11.2547C52.7908 11.5093 52.6472 11.954 52.7769 12.3614L53.8205 15.6388C54.115 16.5636 53.0518 17.3236 52.2721 16.7455L49.5956 14.7612C49.2418 14.4989 48.7582 14.4989 48.4044 14.7612L45.7279 16.7455C44.9482 17.3236 43.885 16.5636 44.1795 15.6388L45.2231 12.3614C45.3528 11.954 45.2092 11.5093 44.8658 11.2547L42.1121 9.21315C41.3378 8.63914 41.7438 7.40983 42.7076 7.40983H46.0687C46.5041 7.40983 46.8895 7.12811 47.0216 6.71324L48.0471 3.49245Z" fill="#3A3B3B"/>
<path d="M67.6471 3.49245C67.9429 2.56366 69.2571 2.56366 69.5529 3.49245L70.5784 6.71324C70.7105 7.12811 71.0959 7.40983 71.5313 7.40983H74.8924C75.8562 7.40983 76.2622 8.63914 75.4879 9.21315L72.7342 11.2547C72.3908 11.5093 72.2472 11.954 72.3769 12.3614L73.4205 15.6388C73.715 16.5636 72.6518 17.3236 71.8721 16.7455L69.1956 14.7612C68.8418 14.4989 68.3582 14.4989 68.0045 14.7612L65.3279 16.7455C64.5482 17.3236 63.485 16.5636 63.7795 15.6388L64.8231 12.3614C64.9528 11.954 64.8092 11.5093 64.4658 11.2547L61.7121 9.21315C60.9378 8.63914 61.3438 7.40983 62.3076 7.40983H65.6687C66.1041 7.40983 66.4895 7.12811 66.6216 6.71324L67.6471 3.49245Z" fill="#3A3B3B"/>
<path d="M87.2471 3.49245C87.5429 2.56366 88.8571 2.56366 89.1529 3.49245L90.1784 6.71324C90.3105 7.12811 90.6959 7.40983 91.1313 7.40983H94.4924C95.4562 7.40983 95.8622 8.63914 95.0879 9.21315L92.3342 11.2547C91.9908 11.5093 91.8472 11.954 91.9769 12.3614L93.0205 15.6388C93.315 16.5636 92.2518 17.3236 91.4721 16.7455L88.7956 14.7612C88.4418 14.4989 87.9582 14.4989 87.6044 14.7612L84.9279 16.7455C84.1482 17.3236 83.085 16.5636 83.3795 15.6388L84.4231 12.3614C84.5528 11.954 84.4092 11.5093 84.0658 11.2547L81.3121 9.21315C80.5378 8.63914 80.9438 7.40983 81.9076 7.40983H85.2687C85.7041 7.40983 86.0895 7.12811 86.2216 6.71324L87.2471 3.49245Z" fill="#3A3B3B"/>
</svg>
