<svg width="20" height="23" viewBox="0 0 20 23" fill="none" xmlns="http://www.w3.org/2000/svg">
<path d="M14.2694 1.79244L13.7668 1H10.7254V8.13718L10.715 15.1086C10.7202 15.1604 10.7254 15.2174 10.7254 15.2692C10.7254 17.0146 9.3057 18.439 7.5544 18.439C5.80311 18.439 4.38342 17.0198 4.38342 15.2692C4.38342 13.5237 5.80311 12.0994 7.5544 12.0994C7.9171 12.0994 8.26943 12.1667 8.59586 12.2807V8.80014C8.25907 8.74317 7.91192 8.71209 7.5544 8.71209C3.94301 8.71727 1 11.6592 1 15.2744C1 18.8896 3.943 21.8315 7.55959 21.8315C11.1762 21.8315 14.1192 18.8896 14.1192 15.2744V6.98218C15.4301 8.29256 17.1244 9.57187 19 9.98104V6.42281C16.9637 5.5216 14.9378 2.8594 14.2694 1.79244Z" stroke="black"/>
</svg>
