<svg width="438" height="585" viewBox="0 0 438 585" fill="none" xmlns="http://www.w3.org/2000/svg">
<path d="M-52.1551 827.049C-13.1693 753.456 -42.5476 618.866 -84.379 594.609C-132.732 566.514 -230.423 733.727 -248.883 764.102C-262.285 786.225 -157.028 745.373 -141.544 814.856C-125.035 888.971 -173.386 975.903 -162.786 970.146C-152.886 970.831 -98.6147 914.777 -52.1551 827.049Z" stroke="url(#paint0_linear_1_252)" stroke-miterlimit="10"/>
<path d="M-39.5638 819.855C6.37653 742.133 -30.7438 591.962 -78.3753 567.715C-134.238 539.204 -239.334 720.282 -259.116 761.52C-271.504 787.354 -169.821 758.073 -148.801 833.809C-126.686 913.518 -165.235 1002.31 -154.231 984.889C-144.157 977.231 -95.01 913.615 -39.5638 819.855Z" stroke="url(#paint1_linear_1_252)" stroke-miterlimit="10"/>
<path d="M-26.7364 812.972C26.1473 731.063 -18.7101 565.288 -72.0929 540.907C-135.528 511.926 -241.925 712.258 -269.164 759.148C-284.445 785.473 -182.423 770.996 -155.819 853.04C-128.075 938.376 -159.279 1027.27 -145.43 999.984C-136.555 982.517 -91.2163 912.855 -26.7364 812.972Z" stroke="url(#paint2_linear_1_252)" stroke-miterlimit="10"/>
<path d="M-13.7943 806.345C46.0093 720.188 -6.56877 538.905 -65.7049 514.447C-136.728 485.053 -239.101 718.35 -279.113 757.021C-299.837 777.085 -194.971 784.219 -162.739 872.515C-129.519 963.606 -150.865 1055.31 -136.537 1015.27C-127.596 990.404 -87.3281 912.256 -13.7943 806.345Z" stroke="url(#paint3_linear_1_252)" stroke-miterlimit="10"/>
<path d="M-0.867533 799.6C65.875 709.168 5.56921 512.375 -59.3582 487.727C-138.015 457.959 -241.841 714.282 -289.142 754.871C-312.286 774.724 -207.586 797.427 -169.699 892.006C-130.899 988.869 -142.212 1082.93 -127.664 1030.66C-118.542 997.875 -83.5077 911.59 -0.867533 799.6Z" stroke="url(#paint4_linear_1_252)" stroke-miterlimit="10"/>
<path d="M12.0671 792.848C85.734 698.107 17.6461 485.796 -53.0204 461.01C-139.279 430.831 -244.614 710.54 -299.202 752.659C-324.797 772.416 -220.241 810.66 -176.701 911.469C-132.373 1014.09 -133.545 1110.22 -118.817 1045.99C-109.439 1005.14 -79.6798 910.834 12.0671 792.848Z" stroke="url(#paint5_linear_1_252)" stroke-miterlimit="10"/>
<path d="M24.998 786.086C105.584 687.026 29.7868 459.188 -46.6864 434.292C-140.568 403.73 -247.448 706.991 -309.264 750.43C-337.36 770.168 -232.927 823.873 -183.702 930.907C-133.846 1039.32 -124.898 1137.36 -109.967 1061.3C-100.322 1012.26 -75.8928 910.091 24.998 786.086Z" stroke="url(#paint6_linear_1_252)" stroke-miterlimit="10"/>
<path d="M37.9266 779.297C125.464 675.806 41.9026 432.626 -40.3444 407.583C-141.821 376.627 -250.302 703.681 -319.302 748.231C-349.937 768.014 -245.596 837.12 -190.689 950.364C-135.316 1064.58 -116.274 1164.48 -101.087 1076.61C-91.2017 1019.31 -72.0914 909.278 37.9266 779.297Z" stroke="url(#paint7_linear_1_252)" stroke-miterlimit="10"/>
<path d="M50.8607 772.505C145.293 664.768 54.0395 406.03 -34.0062 380.856C-143.141 349.585 -253.25 700.504 -329.343 745.996C-362.542 765.874 -258.289 850.372 -197.691 969.81C-136.795 1089.83 -107.626 1191.47 -92.2233 1091.88C-82.0753 1026.3 -68.2828 908.42 50.8607 772.505Z" stroke="url(#paint8_linear_1_252)" stroke-miterlimit="10"/>
<path d="M63.799 765.701C165.148 653.616 66.1161 379.508 -27.6632 354.124C-144.429 322.526 -256.131 697.306 -339.358 743.788C-375.143 763.749 -270.97 863.591 -204.66 989.271C-138.257 1115.1 -98.9857 1218.49 -83.3357 1107.18C-72.9569 1033.27 -64.4691 907.545 63.799 765.701Z" stroke="url(#paint9_linear_1_252)" stroke-miterlimit="10"/>
<path d="M76.7307 758.871C185.005 642.429 78.2025 352.894 -21.3144 327.404C-145.712 295.468 -259.083 694.216 -349.4 741.52C-387.792 761.627 -283.652 876.864 -211.661 1008.67C-139.67 1140.47 -90.3713 1245.4 -74.4541 1122.43C-63.8292 1040.2 -60.664 906.628 76.7307 758.871Z" stroke="url(#paint10_linear_1_252)" stroke-miterlimit="10"/>
<path d="M89.6686 752.037C204.861 631.229 90.3356 326.387 -14.9574 300.652C-147.011 268.354 -262.085 691.127 -359.401 739.236C-400.425 759.502 -296.321 890.095 -218.635 1028.06C-141.212 1165.52 -81.7619 1272.31 -65.5721 1137.6C-54.7017 1047.09 -56.8504 905.703 89.6686 752.037Z" stroke="url(#paint11_linear_1_252)" stroke-miterlimit="10"/>
<path d="M102.618 745.187C224.726 620.017 102.345 300.175 -8.62886 273.949C-148.422 241.832 -265.08 688.232 -369.416 737.003C-413.077 757.415 -309.013 903.362 -225.623 1047.47C-142.702 1190.75 -73.1626 1299.24 -56.7011 1152.84C-45.5581 1053.96 -53.0104 904.707 102.618 745.187Z" stroke="url(#paint12_linear_1_252)" stroke-miterlimit="10"/>
<path d="M115.559 738.321C244.58 608.79 114.47 273.59 -2.22934 247.195C-149.647 214.666 -267.999 685.282 -379.361 734.702C-425.674 755.297 -321.63 916.572 -232.527 1066.84C-144.115 1215.98 -64.4908 1326.1 -47.7476 1168.05C-36.4168 1060.82 -49.1788 903.731 115.559 738.321Z" stroke="url(#paint13_linear_1_252)" stroke-miterlimit="10"/>
<path d="M128.506 731.446C264.485 597.48 126.603 246.974 4.12953 220.44C-150.845 187.652 -271.016 682.223 -389.331 732.379C-438.348 753.185 -334.523 930.094 -239.483 1086.13C-145.819 1241.44 -55.8774 1352.87 -38.8634 1183.14C-27.2724 1067.63 -45.3332 902.699 128.506 731.446Z" stroke="url(#paint14_linear_1_252)" stroke-miterlimit="10"/>
<path d="M141.455 724.562C284.225 585.947 138.738 220.351 10.4955 193.69C-152.108 160.465 -274.022 679.261 -399.305 730.075C-450.929 751.011 -347.108 943.216 -246.433 1105.47C-147.222 1266.52 -47.2514 1379.66 -29.9408 1198.27C-18.1257 1074.43 -41.5857 901.25 141.455 724.562Z" stroke="url(#paint15_linear_1_252)" stroke-miterlimit="10"/>
<path d="M154.406 717.654C304.108 574.749 150.864 193.764 16.8707 166.938C-153.318 133.34 -277.019 676.312 -409.251 727.745C-463.541 748.864 -359.678 956.36 -253.358 1124.77C-148.613 1291.58 -38.6209 1406.45 -21.024 1213.38C-8.96282 1081.11 -37.7078 900.284 154.406 717.654Z" stroke="url(#paint16_linear_1_252)" stroke-miterlimit="10"/>
<path d="M167.363 710.75C323.989 563.546 163.017 167.127 23.254 140.2C-154.517 106.269 -280.034 673.37 -419.183 725.42C-476.152 746.722 -372.317 969.493 -260.29 1144.02C-149.96 1316.52 -29.769 1433.08 -12.1139 1228.45C0.354415 1087.92 -33.8209 899.321 167.363 710.75Z" stroke="url(#paint17_linear_1_252)" stroke-miterlimit="10"/>
<path d="M180.32 703.841C343.884 552.376 175.187 140.449 29.6338 113.448C-155.743 79.12 -283.045 670.422 -429.093 723.127C-488.753 744.626 -384.809 982.577 -267.178 1163.39C-151.375 1341.67 -21.2388 1459.89 -3.17148 1243.59C9.42605 1094.7 -29.9788 898.313 180.32 703.841Z" stroke="url(#paint18_linear_1_252)" stroke-miterlimit="10"/>
<path d="M5.76687 1258.64C18.5083 1101.47 -26.0311 897.339 193.276 696.906C363.761 541.106 187.312 113.881 36.0297 86.6768C-156.951 51.9906 -286.047 667.461 -439.028 720.73C-562.745 763.791 -31.4845 1718.28 5.76687 1258.64Z" stroke="url(#paint19_linear_1_252)" stroke-miterlimit="10"/>
<defs>
<linearGradient id="paint0_linear_1_252" x1="-80.2006" y1="881.544" x2="-248.705" y2="744.063" gradientUnits="userSpaceOnUse">
<stop stop-color="#9C9C9C"/>
<stop offset="1" stop-color="#17181A"/>
</linearGradient>
<linearGradient id="paint1_linear_1_252" x1="-72.5748" y1="886.591" x2="-260.205" y2="733.504" gradientUnits="userSpaceOnUse">
<stop stop-color="#9C9C9C"/>
<stop offset="1" stop-color="#17181A"/>
</linearGradient>
<linearGradient id="paint2_linear_1_252" x1="-62.0875" y1="899.138" x2="-272.105" y2="727.788" gradientUnits="userSpaceOnUse">
<stop stop-color="#9C9C9C"/>
<stop offset="1" stop-color="#17181A"/>
</linearGradient>
<linearGradient id="paint3_linear_1_252" x1="-50.581" y1="914.267" x2="-282.22" y2="725.276" gradientUnits="userSpaceOnUse">
<stop stop-color="#9C9C9C"/>
<stop offset="1" stop-color="#17181A"/>
</linearGradient>
<linearGradient id="paint4_linear_1_252" x1="-38.8802" y1="929.778" x2="-295.119" y2="720.72" gradientUnits="userSpaceOnUse">
<stop stop-color="#9C9C9C"/>
<stop offset="1" stop-color="#17181A"/>
</linearGradient>
<linearGradient id="paint5_linear_1_252" x1="-27.2005" y1="945.418" x2="-308.185" y2="716.173" gradientUnits="userSpaceOnUse">
<stop stop-color="#9C9C9C"/>
<stop offset="1" stop-color="#17181A"/>
</linearGradient>
<linearGradient id="paint6_linear_1_252" x1="-15.5404" y1="961.165" x2="-321.391" y2="711.636" gradientUnits="userSpaceOnUse">
<stop stop-color="#9C9C9C"/>
<stop offset="1" stop-color="#17181A"/>
</linearGradient>
<linearGradient id="paint7_linear_1_252" x1="-3.91174" y1="977.048" x2="-334.712" y2="707.165" gradientUnits="userSpaceOnUse">
<stop stop-color="#9C9C9C"/>
<stop offset="1" stop-color="#17181A"/>
</linearGradient>
<linearGradient id="paint8_linear_1_252" x1="7.6388" y1="993.021" x2="-348.169" y2="702.737" gradientUnits="userSpaceOnUse">
<stop stop-color="#9C9C9C"/>
<stop offset="1" stop-color="#17181A"/>
</linearGradient>
<linearGradient id="paint9_linear_1_252" x1="19.1309" y1="1009.14" x2="-361.754" y2="698.401" gradientUnits="userSpaceOnUse">
<stop stop-color="#9C9C9C"/>
<stop offset="1" stop-color="#17181A"/>
</linearGradient>
<linearGradient id="paint10_linear_1_252" x1="30.5289" y1="1025.35" x2="-375.445" y2="694.139" gradientUnits="userSpaceOnUse">
<stop stop-color="#9C9C9C"/>
<stop offset="1" stop-color="#17181A"/>
</linearGradient>
<linearGradient id="paint11_linear_1_252" x1="41.8269" y1="1041.61" x2="-389.254" y2="689.915" gradientUnits="userSpaceOnUse">
<stop stop-color="#9C9C9C"/>
<stop offset="1" stop-color="#17181A"/>
</linearGradient>
<linearGradient id="paint12_linear_1_252" x1="52.9969" y1="1058.1" x2="-403.137" y2="685.968" gradientUnits="userSpaceOnUse">
<stop stop-color="#9C9C9C"/>
<stop offset="1" stop-color="#17181A"/>
</linearGradient>
<linearGradient id="paint13_linear_1_252" x1="64.1507" y1="1074.68" x2="-417.164" y2="682.003" gradientUnits="userSpaceOnUse">
<stop stop-color="#9C9C9C"/>
<stop offset="1" stop-color="#17181A"/>
</linearGradient>
<linearGradient id="paint14_linear_1_252" x1="75.1118" y1="1091.33" x2="-431.306" y2="678.17" gradientUnits="userSpaceOnUse">
<stop stop-color="#9C9C9C"/>
<stop offset="1" stop-color="#17181A"/>
</linearGradient>
<linearGradient id="paint15_linear_1_252" x1="86.0364" y1="1108.08" x2="-445.572" y2="674.377" gradientUnits="userSpaceOnUse">
<stop stop-color="#9C9C9C"/>
<stop offset="1" stop-color="#17181A"/>
</linearGradient>
<linearGradient id="paint16_linear_1_252" x1="96.8587" y1="1124.96" x2="-459.919" y2="670.723" gradientUnits="userSpaceOnUse">
<stop stop-color="#9C9C9C"/>
<stop offset="1" stop-color="#17181A"/>
</linearGradient>
<linearGradient id="paint17_linear_1_252" x1="107.597" y1="1141.97" x2="-474.354" y2="667.192" gradientUnits="userSpaceOnUse">
<stop stop-color="#9C9C9C"/>
<stop offset="1" stop-color="#17181A"/>
</linearGradient>
<linearGradient id="paint18_linear_1_252" x1="118.274" y1="1159.03" x2="-488.875" y2="663.698" gradientUnits="userSpaceOnUse">
<stop stop-color="#9C9C9C"/>
<stop offset="1" stop-color="#17181A"/>
</linearGradient>
<linearGradient id="paint19_linear_1_252" x1="128.85" y1="1176.15" x2="-503.46" y2="660.283" gradientUnits="userSpaceOnUse">
<stop stop-color="#9C9C9C"/>
<stop offset="1" stop-color="#17181A"/>
</linearGradient>
</defs>
</svg>
