<svg width="1108" height="572" viewBox="0 0 1108 572" fill="none" xmlns="http://www.w3.org/2000/svg">
<path d="M353.914 -53.2036C314.541 10.5392 343.663 120.975 396.963 152.01C455.833 186.274 608.076 74.3813 617.914 50.0135C627.752 25.6457 453.836 83.6208 442.967 23.4343C430.917 -43.3792 543.206 -117.805 525.448 -137.987C507.979 -157.846 399.427 -126.881 353.914 -53.2036Z" stroke="url(#paint0_linear_1_74)" stroke-miterlimit="10"/>
<path d="M331.917 -47.8588C280.552 18.9774 323.972 147.247 387.32 179.286C459.093 215.559 615.763 80.8075 635.039 54.7904C651.664 32.3755 474.285 72.9391 453.789 5.0862C431.504 -68.6218 526.21 -145.674 509.194 -154.935C490.933 -164.85 392.233 -126.223 331.917 -47.8588Z" stroke="url(#paint1_linear_1_74)" stroke-miterlimit="10"/>
<path d="M309.93 -42.5002C246.633 27.2878 304.325 173.47 377.67 206.547C462.453 244.841 621.967 87.9492 652.175 59.5813C674.1 38.9118 494.906 62.2466 464.576 -13.2791C432.237 -93.8377 510.967 -175.852 493.008 -171.785C475.914 -174.324 385.361 -125.696 309.93 -42.5002Z" stroke="url(#paint2_linear_1_74)" stroke-miterlimit="10"/>
<path d="M287.904 -37.198C212.822 35.6495 284.691 199.601 368.051 233.746C465.821 273.869 637.412 103.792 669.333 64.2949C689.323 39.5494 515.629 51.4442 475.422 -31.6646C433.119 -119.132 494.881 -204.919 476.834 -188.725C459.875 -182.57 378.525 -125.071 287.904 -37.198Z" stroke="url(#paint3_linear_1_74)" stroke-miterlimit="10"/>
<path d="M265.934 -31.8101C179.13 44.1163 265.129 225.765 358.382 261.1C469.195 303.1 641.967 113.174 686.431 69.1502C711.373 44.4316 536.366 40.7769 486.218 -49.9343C433.932 -144.299 483.016 -231.526 460.592 -205.539C446.22 -188.904 371.771 -124.398 265.934 -31.8101Z" stroke="url(#paint4_linear_1_74)" stroke-miterlimit="10"/>
<path d="M243.956 -26.4787C145.461 52.6095 245.57 251.888 348.732 288.361C472.63 332.186 636.726 107.057 703.622 73.9851C738.269 56.8199 557.238 30.0399 497.07 -68.2413C435.05 -169.627 467.001 -261.604 444.425 -222.361C430.329 -198.008 365.067 -123.696 243.956 -26.4787Z" stroke="url(#paint5_linear_1_74)" stroke-miterlimit="10"/>
<path d="M221.97 -21.1202C111.8 61.1183 225.98 277.928 339.072 315.648C476.073 361.248 641.379 112.434 720.692 78.7163C759.499 62.2253 578.026 19.2159 507.819 -86.6235C435.921 -195.018 450.458 -291.25 428.154 -239.298C414.171 -206.707 358.38 -122.964 221.97 -21.1202Z" stroke="url(#paint6_linear_1_74)" stroke-miterlimit="10"/>
<path d="M199.969 -15.7736C78.1531 69.6579 206.496 304.022 329.426 342.926C479.476 390.335 646.081 117.47 737.823 83.5095C780.84 67.5773 598.872 8.37347 518.637 -104.97C436.953 -220.35 433.919 -320.572 411.944 -256.174C397.95 -215.222 351.682 -122.164 199.969 -15.7736Z" stroke="url(#paint7_linear_1_74)" stroke-miterlimit="10"/>
<path d="M177.973 -10.4303C44.521 78.2084 186.899 330.128 319.785 370.201C482.92 419.396 650.89 122.311 754.968 88.3134C802.274 72.8671 619.769 -2.44129 529.452 -123.293C437.979 -245.699 417.435 -349.745 395.738 -273.053C381.719 -223.608 345.052 -121.388 177.973 -10.4303Z" stroke="url(#paint8_linear_1_74)" stroke-miterlimit="10"/>
<path d="M155.985 -5.07082C10.8458 86.8909 167.345 356.186 310.132 397.463C486.307 448.453 655.735 126.904 772.083 93.0768C823.739 78.0553 640.636 -13.2968 540.246 -141.643C439.003 -271.087 401.004 -378.911 379.495 -289.946C365.498 -231.938 338.403 -120.558 155.985 -5.07082Z" stroke="url(#paint9_linear_1_74)" stroke-miterlimit="10"/>
<path d="M133.988 0.273298C-22.7537 95.3786 147.755 382.267 300.489 424.739C489.811 477.454 660.748 131.364 789.217 97.8674C845.267 83.2213 661.547 -24.1626 551.068 -159.992C440.045 -296.488 384.549 -407.96 363.288 -306.824C349.278 -240.228 331.746 -119.703 133.988 0.273298Z" stroke="url(#paint10_linear_1_74)" stroke-miterlimit="10"/>
<path d="M111.989 5.6181C-56.3873 103.971 128.271 408.278 290.845 452.015C493.268 506.464 665.66 135.829 806.321 102.616C866.802 88.3621 682.45 -35.0018 561.842 -178.371C441.067 -321.917 368.119 -437.046 347.052 -323.745C333.085 -248.515 325.088 -118.847 111.989 5.6181Z" stroke="url(#paint11_linear_1_74)" stroke-miterlimit="10"/>
<path d="M90.0037 10.9755C-90.0258 112.588 108.774 434.379 281.195 479.275C496.729 535.473 670.708 140.185 823.494 107.422C888.44 93.4972 703.363 -45.9088 572.685 -196.692C442.007 -347.476 351.749 -466.048 330.837 -340.638C316.886 -256.778 318.453 -117.964 90.0037 10.9755Z" stroke="url(#paint12_linear_1_74)" stroke-miterlimit="10"/>
<path d="M68.0069 16.3197C-123.666 121.205 89.1906 460.354 271.535 506.563C500.225 564.539 675.853 144.537 840.611 112.225C910.066 98.6191 724.266 -56.7888 583.489 -215.029C443.189 -372.703 335.395 -495.06 314.632 -357.476C300.695 -265.026 311.806 -117.095 68.0069 16.3197Z" stroke="url(#paint13_linear_1_74)" stroke-miterlimit="10"/>
<path d="M46.0067 21.6667C-157.31 129.826 69.8207 486.043 261.942 533.806C503.908 593.011 681.007 148.679 857.785 116.969C931.76 103.697 745.236 -67.7129 594.343 -233.398C444.299 -398.147 319.081 -524.12 298.466 -374.4C284.5 -273.27 305.139 -116.171 46.0067 21.6667Z" stroke="url(#paint14_linear_1_74)" stroke-miterlimit="10"/>
<path d="M24.0209 27.0241C-190.939 138.457 50.2685 512.1 252.23 561.087C507.309 622.122 686.04 152.86 874.849 121.765C953.369 108.789 766.086 -78.5992 605.058 -251.758C445.277 -423.609 302.647 -553.141 282.161 -391.315C268.311 -281.519 298.485 -115.277 24.0209 27.0241Z" stroke="url(#paint15_linear_1_74)" stroke-miterlimit="10"/>
<path d="M2.02343 32.3684C-224.659 147.147 30.7058 538.183 242.596 588.377C510.675 651.069 691.273 157.154 891.992 126.57C975.147 113.872 787.421 -89.7859 615.89 -270.052C446.761 -449.302 286.331 -582.096 265.992 -408.136C252.129 -289.752 291.821 -114.355 2.02343 32.3684Z" stroke="url(#paint16_linear_1_74)" stroke-miterlimit="10"/>
<path d="M-19.9723 37.7128C-258.081 156.094 11.1449 564.267 232.955 615.653C514.166 680.202 696.486 161.339 909.146 131.349C996.774 118.994 808.254 -100.619 626.713 -288.401C447.751 -474.668 269.997 -611.08 249.759 -425.016C235.948 -297.985 285.353 -112.987 -19.9723 37.7128Z" stroke="url(#paint17_linear_1_74)" stroke-miterlimit="10"/>
<path d="M-41.9636 43.0732C-291.763 164.656 -8.39526 590.314 223.308 642.93C517.577 709.263 701.703 165.5 926.276 136.142C1018.48 124.085 829.081 -111.49 637.513 -306.736C448.737 -500.031 253.666 -640.088 233.549 -441.892C219.757 -306.11 278.647 -112.162 -41.9636 43.0732Z" stroke="url(#paint18_linear_1_74)" stroke-miterlimit="10"/>
<path d="M-63.9599 48.4176C-325.44 173.217 -27.9745 616.409 213.657 670.192C520.982 738.268 706.969 169.65 943.402 140.919C1040.2 129.163 850.048 -122.351 648.346 -325.03C449.666 -525.296 236.973 -668.999 217.362 -458.742C203.303 -314.409 271.935 -111.352 -63.9599 48.4176Z" stroke="url(#paint19_linear_1_74)" stroke-miterlimit="10"/>
<path d="M-85.9555 53.7604C-359.145 181.733 -47.5789 642.541 204.016 697.466C524.445 767.357 712.235 173.798 960.5 145.651C1061.92 134.185 870.773 -133.196 659.104 -343.479C450.707 -550.778 220.826 -698.047 201.119 -475.678C187.276 -322.642 265.307 -110.495 -85.9555 53.7604Z" stroke="url(#paint20_linear_1_74)" stroke-miterlimit="10"/>
<path d="M184.893 -492.543C171.237 -330.888 258.503 -109.706 -107.944 59.12C-392.814 190.35 -67.1083 668.562 194.354 724.755C527.885 796.42 717.499 177.949 977.661 150.486C1188.06 128.296 224.811 -965.301 184.893 -492.543Z" stroke="url(#paint21_linear_1_74)" stroke-miterlimit="10"/>
<defs>
<linearGradient id="paint0_linear_1_74" x1="388.32" y1="-94.9351" x2="531.064" y2="120.727" gradientUnits="userSpaceOnUse">
<stop stop-color="#9C9C9C"/>
<stop offset="1" stop-color="#17181A"/>
</linearGradient>
<linearGradient id="paint1_linear_1_74" x1="370.718" y1="-92.9953" x2="526.957" y2="143.054" gradientUnits="userSpaceOnUse">
<stop stop-color="#9C9C9C"/>
<stop offset="1" stop-color="#17181A"/>
</linearGradient>
<linearGradient id="paint2_linear_1_74" x1="355.383" y1="-94.33" x2="526.495" y2="164.188" gradientUnits="userSpaceOnUse">
<stop stop-color="#9C9C9C"/>
<stop offset="1" stop-color="#17181A"/>
</linearGradient>
<linearGradient id="paint3_linear_1_74" x1="341.283" y1="-100.933" x2="531.869" y2="187.009" gradientUnits="userSpaceOnUse">
<stop stop-color="#9C9C9C"/>
<stop offset="1" stop-color="#17181A"/>
</linearGradient>
<linearGradient id="paint4_linear_1_74" x1="322.308" y1="-115.418" x2="535.573" y2="206.787" gradientUnits="userSpaceOnUse">
<stop stop-color="#9C9C9C"/>
<stop offset="1" stop-color="#17181A"/>
</linearGradient>
<linearGradient id="paint5_linear_1_74" x1="301.656" y1="-132.569" x2="536.86" y2="222.783" gradientUnits="userSpaceOnUse">
<stop stop-color="#9C9C9C"/>
<stop offset="1" stop-color="#17181A"/>
</linearGradient>
<linearGradient id="paint6_linear_1_74" x1="280.581" y1="-150.194" x2="540.632" y2="242.695" gradientUnits="userSpaceOnUse">
<stop stop-color="#9C9C9C"/>
<stop offset="1" stop-color="#17181A"/>
</linearGradient>
<linearGradient id="paint7_linear_1_74" x1="259.54" y1="-167.958" x2="544.583" y2="262.691" gradientUnits="userSpaceOnUse">
<stop stop-color="#9C9C9C"/>
<stop offset="1" stop-color="#17181A"/>
</linearGradient>
<linearGradient id="paint8_linear_1_74" x1="238.529" y1="-185.839" x2="548.689" y2="282.758" gradientUnits="userSpaceOnUse">
<stop stop-color="#9C9C9C"/>
<stop offset="1" stop-color="#17181A"/>
</linearGradient>
<linearGradient id="paint9_linear_1_74" x1="217.57" y1="-203.864" x2="552.936" y2="302.815" gradientUnits="userSpaceOnUse">
<stop stop-color="#9C9C9C"/>
<stop offset="1" stop-color="#17181A"/>
</linearGradient>
<linearGradient id="paint10_linear_1_74" x1="196.743" y1="-221.984" x2="557.379" y2="322.873" gradientUnits="userSpaceOnUse">
<stop stop-color="#9C9C9C"/>
<stop offset="1" stop-color="#17181A"/>
</linearGradient>
<linearGradient id="paint11_linear_1_74" x1="176.016" y1="-240.26" x2="561.997" y2="342.887" gradientUnits="userSpaceOnUse">
<stop stop-color="#9C9C9C"/>
<stop offset="1" stop-color="#17181A"/>
</linearGradient>
<linearGradient id="paint12_linear_1_74" x1="155.45" y1="-258.626" x2="566.797" y2="362.845" gradientUnits="userSpaceOnUse">
<stop stop-color="#9C9C9C"/>
<stop offset="1" stop-color="#17181A"/>
</linearGradient>
<linearGradient id="paint13_linear_1_74" x1="135.054" y1="-277.048" x2="571.793" y2="382.786" gradientUnits="userSpaceOnUse">
<stop stop-color="#9C9C9C"/>
<stop offset="1" stop-color="#17181A"/>
</linearGradient>
<linearGradient id="paint14_linear_1_74" x1="114.883" y1="-295.706" x2="576.969" y2="402.422" gradientUnits="userSpaceOnUse">
<stop stop-color="#9C9C9C"/>
<stop offset="1" stop-color="#17181A"/>
</linearGradient>
<linearGradient id="paint15_linear_1_74" x1="94.7343" y1="-314.462" x2="582.303" y2="422.166" gradientUnits="userSpaceOnUse">
<stop stop-color="#9C9C9C"/>
<stop offset="1" stop-color="#17181A"/>
</linearGradient>
<linearGradient id="paint16_linear_1_74" x1="74.9158" y1="-333.292" x2="587.908" y2="441.747" gradientUnits="userSpaceOnUse">
<stop stop-color="#9C9C9C"/>
<stop offset="1" stop-color="#17181A"/>
</linearGradient>
<linearGradient id="paint17_linear_1_74" x1="55.1592" y1="-352.237" x2="593.663" y2="461.346" gradientUnits="userSpaceOnUse">
<stop stop-color="#9C9C9C"/>
<stop offset="1" stop-color="#17181A"/>
</linearGradient>
<linearGradient id="paint18_linear_1_74" x1="35.5794" y1="-371.308" x2="599.584" y2="480.802" gradientUnits="userSpaceOnUse">
<stop stop-color="#9C9C9C"/>
<stop offset="1" stop-color="#17181A"/>
</linearGradient>
<linearGradient id="paint19_linear_1_74" x1="16.144" y1="-390.513" x2="605.663" y2="500.144" gradientUnits="userSpaceOnUse">
<stop stop-color="#9C9C9C"/>
<stop offset="1" stop-color="#17181A"/>
</linearGradient>
<linearGradient id="paint20_linear_1_74" x1="-3.18759" y1="-409.777" x2="611.876" y2="519.473" gradientUnits="userSpaceOnUse">
<stop stop-color="#9C9C9C"/>
<stop offset="1" stop-color="#17181A"/>
</linearGradient>
<linearGradient id="paint21_linear_1_74" x1="-22.3444" y1="-429.091" x2="618.234" y2="538.707" gradientUnits="userSpaceOnUse">
<stop stop-color="#9C9C9C"/>
<stop offset="1" stop-color="#17181A"/>
</linearGradient>
</defs>
</svg>
