<svg width="256" height="227" viewBox="0 0 256 227" fill="none" xmlns="http://www.w3.org/2000/svg">
<path d="M489.974 -16.5567C511.04 -73.0451 433.082 -140.611 381.246 -137.768C320.431 -134.472 273.177 -3.50461 266.33 24.9493C262.045 42.774 349.515 -6.37571 390.998 26.9403C434.651 62.0067 423.719 121.936 429.108 109.043C436.413 101.645 464.537 51.596 489.974 -16.5567Z" stroke="url(#paint0_linear_1_134)" stroke-miterlimit="10"/>
<path d="M500.078 -24.7951C526.483 -85.7851 436.792 -159.068 379.513 -154.398C311.445 -148.853 268.486 -7.26158 256.229 26.6507C249.36 45.6861 341.359 4.30522 389.897 39.12C440.452 75.3078 436.475 132.851 441.72 113.778C445.087 101.565 467.886 49.5752 500.078 -24.7951Z" stroke="url(#paint1_linear_1_134)" stroke-miterlimit="10"/>
<path d="M510.199 -33.0057C541.908 -98.5332 440.513 -177.503 377.794 -170.974C302.463 -163.143 272.727 -5.37402 246.085 28.3859C232.296 45.8897 333.15 15.0564 388.776 51.3332C446.134 88.7682 452.25 144.547 454.296 118.536C455.61 102.373 471.202 47.5516 510.199 -33.0057Z" stroke="url(#paint2_linear_1_134)" stroke-miterlimit="10"/>
<path d="M520.318 -41.2327C557.325 -111.287 444.27 -195.903 376.074 -187.567C293.484 -177.419 268.975 -7.02153 236.029 30.1451C219.908 48.3267 325.007 25.8319 387.727 63.5602C451.96 102.2 468.194 155.887 466.955 123.328C466.173 102.905 474.502 45.517 520.318 -41.2327Z" stroke="url(#paint3_linear_1_134)" stroke-miterlimit="10"/>
<path d="M530.448 -49.457C572.727 -124.054 447.958 -214.304 374.348 -204.151C284.518 -191.718 265.282 -8.48001 225.927 31.8868C207.476 50.8189 316.837 36.6313 386.634 75.7853C457.688 115.641 484.055 167.059 479.566 128.103C476.722 103.326 477.79 43.4438 530.448 -49.457Z" stroke="url(#paint4_linear_1_134)" stroke-miterlimit="10"/>
<path d="M540.576 -57.6783C588.119 -136.823 451.702 -232.739 372.621 -220.733C275.538 -205.993 261.581 -9.81055 215.815 33.6266C195.011 53.3666 308.635 47.4289 385.536 87.998C463.423 129.09 499.85 178.167 492.176 132.881C487.245 103.677 481.05 41.4 540.576 -57.6783Z" stroke="url(#paint5_linear_1_134)" stroke-miterlimit="10"/>
<path d="M550.696 -65.9062C603.5 -149.671 455.436 -251.14 370.903 -237.311C266.589 -220.281 257.924 -11.003 205.728 35.38C182.555 55.9748 300.458 58.2402 384.456 100.219C469.17 142.558 515.616 189.285 504.81 137.657C497.748 104.001 484.305 39.3234 550.696 -65.9062Z" stroke="url(#paint6_linear_1_134)" stroke-miterlimit="10"/>
<path d="M560.824 -74.1284C618.89 -162.399 459.182 -269.56 369.176 -253.893C257.592 -234.51 254.211 -12.0851 195.624 37.1239C170.071 58.61 292.26 69.068 383.361 112.446C474.909 156.038 531.366 200.336 517.42 142.434C508.241 104.304 487.559 37.2319 560.824 -74.1284Z" stroke="url(#paint7_linear_1_134)" stroke-miterlimit="10"/>
<path d="M570.953 -82.3512C634.272 -175.189 462.891 -287.919 367.45 -270.477C248.618 -248.755 250.55 -13.1943 185.547 38.8825C157.59 61.2602 284.06 79.8798 382.298 124.678C480.667 169.527 547.112 211.413 530.056 147.226C518.72 104.613 490.813 35.1399 570.953 -82.3512Z" stroke="url(#paint8_linear_1_134)" stroke-miterlimit="10"/>
<path d="M581.072 -90.5774C649.651 -187.994 466.585 -306.327 365.731 -287.053C239.642 -262.999 246.845 -14.213 175.419 40.6278C145.057 63.9387 275.872 90.7293 381.186 136.896C486.499 183.063 562.805 222.46 542.674 152.009C529.196 104.908 494.048 33.0393 581.072 -90.5774Z" stroke="url(#paint9_linear_1_134)" stroke-miterlimit="10"/>
<path d="M591.2 -98.7994C665.03 -200.8 470.354 -324.691 364.011 -303.646C230.633 -277.264 243.09 -15.206 165.322 42.3614C132.533 66.6213 267.683 101.562 380.097 149.113C492.122 196.487 578.493 233.517 555.273 156.766C539.663 105.196 497.293 30.943 591.2 -98.7994Z" stroke="url(#paint10_linear_1_134)" stroke-miterlimit="10"/>
<path d="M601.329 -107.024C680.41 -213.608 474.083 -342.853 362.266 -320.199C221.674 -291.174 239.383 -16.0877 155.208 44.1397C119.985 69.3436 259.469 112.435 378.99 161.359C497.838 210.006 594.172 244.608 567.874 161.577C550.132 105.483 500.535 28.8131 601.329 -107.024Z" stroke="url(#paint11_linear_1_134)" stroke-miterlimit="10"/>
<path d="M611.448 -115.25C695.78 -226.418 477.816 -361.252 360.575 -336.802C212.705 -305.485 235.73 -17.0187 145.14 45.8634C107.478 72.0373 251.309 123.258 377.954 173.566C503.626 223.501 609.904 255.65 580.545 166.349C560.599 105.772 503.777 26.7021 611.448 -115.25Z" stroke="url(#paint12_linear_1_134)" stroke-miterlimit="10"/>
<path d="M621.577 -123.472C711.183 -239.281 481.548 -379.667 358.84 -353.389C203.793 -319.72 231.944 -17.9596 135.028 47.6021C94.885 74.7776 242.97 134.358 376.84 185.768C509.208 237.242 625.559 266.687 593.121 171.106C571.058 106.056 507.018 24.5743 621.577 -123.472Z" stroke="url(#paint13_linear_1_134)" stroke-miterlimit="10"/>
<path d="M631.704 -131.694C726.367 -252.204 485.279 -398.082 357.113 -369.972C194.771 -334.022 228.195 -18.8488 124.918 49.3567C82.3607 77.4604 234.805 145.149 375.744 197.995C514.966 250.69 641.229 277.734 605.746 175.878C581.517 106.339 510.047 22.2624 631.704 -131.694Z" stroke="url(#paint14_linear_1_134)" stroke-miterlimit="10"/>
<path d="M641.826 -139.923C741.782 -264.991 489.008 -416.473 355.387 -386.556C185.808 -348.305 224.451 -19.7244 114.816 51.0988C69.8047 80.1778 226.653 155.959 374.657 210.21C520.726 264.136 656.904 288.794 618.357 180.653C591.954 106.564 513.333 20.1739 641.826 -139.923Z" stroke="url(#paint15_linear_1_134)" stroke-miterlimit="10"/>
<path d="M651.953 -148.145C757.195 -277.776 492.745 -434.899 353.669 -403.133C176.862 -362.56 220.683 -20.5823 104.72 52.8479C57.2405 82.9076 218.425 166.798 373.542 222.412C526.49 277.517 672.744 299.714 630.95 185.42C602.571 106.815 516.626 18.0925 651.953 -148.145Z" stroke="url(#paint16_linear_1_134)" stroke-miterlimit="10"/>
<path d="M662.081 -156.366C772.633 -290.545 496.487 -453.35 351.942 -419.715C167.865 -376.845 216.916 -21.4391 94.6496 54.6134C44.6954 85.6643 210.319 177.568 372.506 234.676C532.251 291.039 688.332 310.841 643.594 190.219C612.95 107.136 519.864 16.0076 662.081 -156.366Z" stroke="url(#paint17_linear_1_134)" stroke-miterlimit="10"/>
<path d="M656.211 194.984C623.338 107.461 523.211 13.9141 672.201 -164.595C788.027 -303.357 500.217 -471.724 350.222 -436.309C158.886 -391.122 213.149 -22.298 84.5211 56.341C-19.5067 119.927 752.356 450.939 656.211 194.984Z" stroke="url(#paint18_linear_1_134)" stroke-miterlimit="10"/>
<defs>
<linearGradient id="paint0_linear_1_134" x1="477.952" y1="29.8207" x2="307.533" y2="-72.9237" gradientUnits="userSpaceOnUse">
<stop stop-color="#9C9C9C"/>
<stop offset="1" stop-color="#17181A"/>
</linearGradient>
<linearGradient id="paint1_linear_1_134" x1="491.412" y1="32.6676" x2="300.714" y2="-82.303" gradientUnits="userSpaceOnUse">
<stop stop-color="#9C9C9C"/>
<stop offset="1" stop-color="#17181A"/>
</linearGradient>
<linearGradient id="paint2_linear_1_134" x1="506.403" y1="36.487" x2="296.087" y2="-90.3111" gradientUnits="userSpaceOnUse">
<stop stop-color="#9C9C9C"/>
<stop offset="1" stop-color="#17181A"/>
</linearGradient>
<linearGradient id="paint3_linear_1_134" x1="521.732" y1="40.4495" x2="289.2" y2="-99.7428" gradientUnits="userSpaceOnUse">
<stop stop-color="#9C9C9C"/>
<stop offset="1" stop-color="#17181A"/>
</linearGradient>
<linearGradient id="paint4_linear_1_134" x1="537.078" y1="44.4917" x2="282.198" y2="-109.174" gradientUnits="userSpaceOnUse">
<stop stop-color="#9C9C9C"/>
<stop offset="1" stop-color="#17181A"/>
</linearGradient>
<linearGradient id="paint5_linear_1_134" x1="552.437" y1="48.6027" x2="275.097" y2="-118.604" gradientUnits="userSpaceOnUse">
<stop stop-color="#9C9C9C"/>
<stop offset="1" stop-color="#17181A"/>
</linearGradient>
<linearGradient id="paint6_linear_1_134" x1="567.805" y1="52.8015" x2="267.926" y2="-127.993" gradientUnits="userSpaceOnUse">
<stop stop-color="#9C9C9C"/>
<stop offset="1" stop-color="#17181A"/>
</linearGradient>
<linearGradient id="paint7_linear_1_134" x1="583.127" y1="57.0824" x2="260.653" y2="-137.335" gradientUnits="userSpaceOnUse">
<stop stop-color="#9C9C9C"/>
<stop offset="1" stop-color="#17181A"/>
</linearGradient>
<linearGradient id="paint8_linear_1_134" x1="598.436" y1="61.4695" x2="253.299" y2="-146.611" gradientUnits="userSpaceOnUse">
<stop stop-color="#9C9C9C"/>
<stop offset="1" stop-color="#17181A"/>
</linearGradient>
<linearGradient id="paint9_linear_1_134" x1="613.684" y1="65.9428" x2="245.864" y2="-155.813" gradientUnits="userSpaceOnUse">
<stop stop-color="#9C9C9C"/>
<stop offset="1" stop-color="#17181A"/>
</linearGradient>
<linearGradient id="paint10_linear_1_134" x1="628.857" y1="70.4879" x2="238.332" y2="-164.957" gradientUnits="userSpaceOnUse">
<stop stop-color="#9C9C9C"/>
<stop offset="1" stop-color="#17181A"/>
</linearGradient>
<linearGradient id="paint11_linear_1_134" x1="643.97" y1="75.2111" x2="230.781" y2="-173.898" gradientUnits="userSpaceOnUse">
<stop stop-color="#9C9C9C"/>
<stop offset="1" stop-color="#17181A"/>
</linearGradient>
<linearGradient id="paint12_linear_1_134" x1="659.097" y1="79.9909" x2="223.122" y2="-182.856" gradientUnits="userSpaceOnUse">
<stop stop-color="#9C9C9C"/>
<stop offset="1" stop-color="#17181A"/>
</linearGradient>
<linearGradient id="paint13_linear_1_134" x1="674.07" y1="84.8906" x2="215.361" y2="-191.662" gradientUnits="userSpaceOnUse">
<stop stop-color="#9C9C9C"/>
<stop offset="1" stop-color="#17181A"/>
</linearGradient>
<linearGradient id="paint14_linear_1_134" x1="689.04" y1="89.8658" x2="207.519" y2="-200.44" gradientUnits="userSpaceOnUse">
<stop stop-color="#9C9C9C"/>
<stop offset="1" stop-color="#17181A"/>
</linearGradient>
<linearGradient id="paint15_linear_1_134" x1="703.948" y1="94.9502" x2="199.625" y2="-209.103" gradientUnits="userSpaceOnUse">
<stop stop-color="#9C9C9C"/>
<stop offset="1" stop-color="#17181A"/>
</linearGradient>
<linearGradient id="paint16_linear_1_134" x1="718.814" y1="100.14" x2="191.677" y2="-217.668" gradientUnits="userSpaceOnUse">
<stop stop-color="#9C9C9C"/>
<stop offset="1" stop-color="#17181A"/>
</linearGradient>
<linearGradient id="paint17_linear_1_134" x1="733.642" y1="105.386" x2="183.662" y2="-226.192" gradientUnits="userSpaceOnUse">
<stop stop-color="#9C9C9C"/>
<stop offset="1" stop-color="#17181A"/>
</linearGradient>
<linearGradient id="paint18_linear_1_134" x1="748.39" y1="110.702" x2="175.596" y2="-234.632" gradientUnits="userSpaceOnUse">
<stop stop-color="#9C9C9C"/>
<stop offset="1" stop-color="#17181A"/>
</linearGradient>
</defs>
</svg>
