<svg width="690" height="465" viewBox="0 0 690 465" fill="none" xmlns="http://www.w3.org/2000/svg">
<path d="M753.45 78.9959C696.909 129.987 752.47 239.644 820.174 265.359C898.436 295.127 1041.29 180.751 1068.37 160.091C1088.02 145.036 924.606 159.72 895.422 103.058C864.304 42.6194 934.722 -17.2402 918.378 -14.4818C902.698 -16.6277 820.828 18.2075 753.45 78.9959Z" stroke="url(#paint0_linear_1_328)" stroke-miterlimit="10"/>
<path d="M733.089 82.6732C665.822 135.772 734.697 258.882 811.589 285.545C901.774 316.874 1055.44 192.848 1083.87 163.927C1101.68 145.807 943.056 152.061 904.689 89.5988C864.321 23.8604 919.157 -39.0688 902.964 -27.2857C887.573 -22.9578 814.278 18.6226 733.089 82.6732Z" stroke="url(#paint1_linear_1_328)" stroke-miterlimit="10"/>
<path d="M712.983 86.5535C635.065 141.761 717.192 278.237 803.143 305.93C905.278 338.846 1059.62 200.083 1099.43 167.985C1121.77 149.961 961.665 144.622 914.067 76.3616C864.443 5.34954 907.653 -58.8324 887.646 -39.8277C874.824 -27.6628 807.985 19.2303 712.983 86.5535Z" stroke="url(#paint2_linear_1_328)" stroke-miterlimit="10"/>
<path d="M692.952 90.4593C604.407 147.843 699.772 297.646 794.802 326.333C908.935 360.802 1054.66 195.716 1115.2 172.105C1146.55 159.849 980.499 137.209 923.595 63.1674C864.938 -13.2131 892.389 -81.1849 872.498 -52.3173C860.077 -34.4044 801.828 19.9219 692.952 90.4593Z" stroke="url(#paint3_linear_1_328)" stroke-miterlimit="10"/>
<path d="M672.899 94.3581C573.763 153.897 682.306 316.918 786.415 346.675C912.533 382.652 1058.87 200.001 1130.73 176.101C1165.89 164.412 999.17 129.697 932.957 49.8988C865.15 -31.8251 876.591 -103.207 857.199 -64.8874C845.041 -40.8477 795.647 20.6242 672.899 94.3581Z" stroke="url(#paint4_linear_1_328)" stroke-miterlimit="10"/>
<path d="M652.832 98.2415C543.134 159.97 664.935 336.228 778.039 367.007C916.093 404.518 1063.13 204.032 1146.33 180.142C1185.34 168.934 1017.89 122.171 942.38 36.6575C865.507 -50.3931 860.811 -124.992 841.962 -77.4161C829.957 -47.1623 789.455 21.3695 652.832 98.2415Z" stroke="url(#paint5_linear_1_328)" stroke-miterlimit="10"/>
<path d="M632.77 102.117C512.517 166.047 647.461 355.543 769.666 387.335C919.69 426.364 1067.49 207.917 1161.95 184.188C1204.88 173.407 1036.65 114.667 951.8 23.4313C865.86 -68.9772 845.089 -146.669 826.733 -89.9532C814.871 -53.3882 783.324 22.0905 632.77 102.117Z" stroke="url(#paint6_linear_1_328)" stroke-miterlimit="10"/>
<path d="M612.715 106.001C481.863 172.218 630.026 374.822 761.285 407.653C923.238 448.207 1071.88 211.618 1177.54 188.202C1224.45 177.804 1055.39 107.131 961.201 10.1838C866.211 -87.5924 829.421 -168.345 811.475 -102.507C799.799 -59.5776 777.178 22.8458 612.715 106.001Z" stroke="url(#paint7_linear_1_328)" stroke-miterlimit="10"/>
<path d="M592.653 109.866C451.275 178.241 612.559 394.114 752.914 427.979C926.893 470.008 1076.43 215.219 1193.15 192.233C1244.08 182.18 1074.17 99.5851 970.63 -3.0666C866.579 -106.222 813.739 -189.94 796.254 -115.056C784.733 -65.7457 771.027 23.6121 592.653 109.866Z" stroke="url(#paint8_linear_1_328)" stroke-miterlimit="10"/>
<path d="M572.592 113.728C420.66 184.337 595.189 413.354 744.545 448.303C930.51 491.814 1080.89 218.82 1208.75 196.229C1263.73 186.535 1092.95 92.0562 980.019 -16.3438C866.933 -124.878 798.085 -211.568 781.012 -127.642C769.696 -71.917 764.878 24.3732 572.592 113.728Z" stroke="url(#paint9_linear_1_328)" stroke-miterlimit="10"/>
<path d="M552.543 117.594C390.039 190.447 577.81 432.659 736.173 468.615C934.136 513.618 1085.48 222.338 1224.42 200.265C1283.48 190.883 1111.74 84.4728 989.477 -29.5826C867.214 -143.638 782.492 -233.141 765.795 -140.216C754.659 -78.0785 758.752 25.1476 552.543 117.594Z" stroke="url(#paint10_linear_1_328)" stroke-miterlimit="10"/>
<path d="M532.484 121.444C359.416 196.553 560.35 451.866 727.795 488.945C937.799 535.465 1090.17 225.851 1240.04 204.293C1303.22 195.216 1130.53 76.9044 998.903 -42.8399C867.725 -162.156 766.916 -254.731 750.59 -152.757C739.632 -84.2362 752.618 25.905 532.484 121.444Z" stroke="url(#paint11_linear_1_328)" stroke-miterlimit="10"/>
<path d="M512.429 125.291C328.795 202.657 543.087 470.864 719.486 509.242C941.632 556.873 1094.87 229.205 1255.73 208.274C1323.05 199.514 1149.39 69.2996 1008.39 -56.1265C868.177 -180.844 751.388 -276.363 735.429 -165.37C724.612 -90.3991 746.476 26.6967 512.429 125.291Z" stroke="url(#paint12_linear_1_328)" stroke-miterlimit="10"/>
<path d="M492.387 129.143C298.185 208.767 525.663 490.131 711.069 529.566C945.221 578.751 1099.47 232.583 1271.33 212.291C1342.8 203.819 1168.14 61.7185 1017.74 -69.4118C868.509 -199.55 735.751 -297.974 720.142 -177.983C709.598 -96.5692 740.346 27.4629 492.387 129.143Z" stroke="url(#paint13_linear_1_328)" stroke-miterlimit="10"/>
<path d="M472.335 132.978C267.492 214.913 508.232 509.416 702.729 549.897C948.785 600.508 1104.27 236.043 1287.01 216.309C1362.72 208.113 1187.35 53.912 1027.22 -82.6578C869.306 -218.436 720.228 -319.55 704.987 -190.536C694.595 -102.74 734.213 28.239 472.335 132.978Z" stroke="url(#paint14_linear_1_328)" stroke-miterlimit="10"/>
<path d="M452.286 136.809C237.077 221.251 490.805 528.7 694.384 570.214C952.469 622.402 1109.04 239.42 1302.7 220.305C1382.5 212.431 1206.1 46.3585 1036.69 -95.9469C869.661 -237.088 704.691 -341.15 689.775 -203.138C679.597 -108.913 728.269 29.3474 452.286 136.809Z" stroke="url(#paint15_linear_1_328)" stroke-miterlimit="10"/>
<path d="M432.245 140.649C206.418 227.296 473.4 547.956 686.039 590.533C956.086 644.242 1113.83 242.775 1318.39 224.308C1402.37 216.724 1224.86 38.7714 1046.15 -109.233C870.019 -255.746 689.162 -362.777 674.588 -215.744C664.595 -115.013 722.103 30.0441 432.245 140.649Z" stroke="url(#paint16_linear_1_328)" stroke-miterlimit="10"/>
<path d="M412.201 144.473C175.765 233.338 455.962 567.246 677.695 610.84C959.704 666.04 1118.68 246.12 1334.08 228.296C1422.27 221.004 1243.76 31.1903 1055.64 -122.493C870.333 -274.337 673.308 -384.344 659.428 -228.335C649.355 -121.251 715.937 30.7246 412.201 144.473Z" stroke="url(#paint17_linear_1_328)" stroke-miterlimit="10"/>
<path d="M392.159 148.293C145.084 239.343 438.504 586.562 669.362 631.155C963.378 687.901 1123.52 249.461 1349.74 232.248C1442.16 225.24 1262.44 23.6134 1065.07 -135.874C870.748 -293.094 657.953 -406.01 644.217 -240.997C634.508 -127.438 709.85 31.4374 392.159 148.293Z" stroke="url(#paint18_linear_1_328)" stroke-miterlimit="10"/>
<path d="M629.038 -253.592C619.659 -133.62 703.602 32.115 372.118 152.133C114.429 245.424 421.084 605.809 660.981 651.5C967.002 709.772 1128.36 252.836 1365.47 236.316C1557.22 222.971 656.451 -604.446 629.038 -253.592Z" stroke="url(#paint19_linear_1_328)" stroke-miterlimit="10"/>
<defs>
<linearGradient id="paint0_linear_1_328" x1="794.018" y1="41.1027" x2="910.031" y2="260.12" gradientUnits="userSpaceOnUse">
<stop stop-color="#9C9C9C"/>
<stop offset="1" stop-color="#17181A"/>
</linearGradient>
<linearGradient id="paint1_linear_1_328" x1="780.682" y1="36.0319" x2="909.916" y2="280.009" gradientUnits="userSpaceOnUse">
<stop stop-color="#9C9C9C"/>
<stop offset="1" stop-color="#17181A"/>
</linearGradient>
<linearGradient id="paint2_linear_1_328" x1="762.927" y1="25.1731" x2="907.52" y2="298.145" gradientUnits="userSpaceOnUse">
<stop stop-color="#9C9C9C"/>
<stop offset="1" stop-color="#17181A"/>
</linearGradient>
<linearGradient id="paint3_linear_1_328" x1="743.675" y1="12.3699" x2="903.138" y2="313.414" gradientUnits="userSpaceOnUse">
<stop stop-color="#9C9C9C"/>
<stop offset="1" stop-color="#17181A"/>
</linearGradient>
<linearGradient id="paint4_linear_1_328" x1="724.003" y1="-0.79949" x2="900.267" y2="331.965" gradientUnits="userSpaceOnUse">
<stop stop-color="#9C9C9C"/>
<stop offset="1" stop-color="#17181A"/>
</linearGradient>
<linearGradient id="paint5_linear_1_328" x1="704.36" y1="-14.0737" x2="897.525" y2="350.599" gradientUnits="userSpaceOnUse">
<stop stop-color="#9C9C9C"/>
<stop offset="1" stop-color="#17181A"/>
</linearGradient>
<linearGradient id="paint6_linear_1_328" x1="684.743" y1="-27.4384" x2="894.895" y2="369.304" gradientUnits="userSpaceOnUse">
<stop stop-color="#9C9C9C"/>
<stop offset="1" stop-color="#17181A"/>
</linearGradient>
<linearGradient id="paint7_linear_1_328" x1="665.173" y1="-40.9124" x2="892.374" y2="388.015" gradientUnits="userSpaceOnUse">
<stop stop-color="#9C9C9C"/>
<stop offset="1" stop-color="#17181A"/>
</linearGradient>
<linearGradient id="paint8_linear_1_328" x1="645.724" y1="-54.4603" x2="890.018" y2="406.736" gradientUnits="userSpaceOnUse">
<stop stop-color="#9C9C9C"/>
<stop offset="1" stop-color="#17181A"/>
</linearGradient>
<linearGradient id="paint9_linear_1_328" x1="626.367" y1="-68.1276" x2="887.805" y2="425.436" gradientUnits="userSpaceOnUse">
<stop stop-color="#9C9C9C"/>
<stop offset="1" stop-color="#17181A"/>
</linearGradient>
<linearGradient id="paint10_linear_1_328" x1="607.156" y1="-81.8657" x2="885.758" y2="444.099" gradientUnits="userSpaceOnUse">
<stop stop-color="#9C9C9C"/>
<stop offset="1" stop-color="#17181A"/>
</linearGradient>
<linearGradient id="paint11_linear_1_328" x1="588.1" y1="-95.6506" x2="883.885" y2="462.754" gradientUnits="userSpaceOnUse">
<stop stop-color="#9C9C9C"/>
<stop offset="1" stop-color="#17181A"/>
</linearGradient>
<linearGradient id="paint12_linear_1_328" x1="569.255" y1="-109.614" x2="882.195" y2="481.178" gradientUnits="userSpaceOnUse">
<stop stop-color="#9C9C9C"/>
<stop offset="1" stop-color="#17181A"/>
</linearGradient>
<linearGradient id="paint13_linear_1_328" x1="550.426" y1="-123.653" x2="880.616" y2="499.703" gradientUnits="userSpaceOnUse">
<stop stop-color="#9C9C9C"/>
<stop offset="1" stop-color="#17181A"/>
</linearGradient>
<linearGradient id="paint14_linear_1_328" x1="531.9" y1="-137.756" x2="879.306" y2="518.101" gradientUnits="userSpaceOnUse">
<stop stop-color="#9C9C9C"/>
<stop offset="1" stop-color="#17181A"/>
</linearGradient>
<linearGradient id="paint15_linear_1_328" x1="513.43" y1="-151.945" x2="878.111" y2="536.524" gradientUnits="userSpaceOnUse">
<stop stop-color="#9C9C9C"/>
<stop offset="1" stop-color="#17181A"/>
</linearGradient>
<linearGradient id="paint16_linear_1_328" x1="495.123" y1="-166.233" x2="877.075" y2="554.843" gradientUnits="userSpaceOnUse">
<stop stop-color="#9C9C9C"/>
<stop offset="1" stop-color="#17181A"/>
</linearGradient>
<linearGradient id="paint17_linear_1_328" x1="476.949" y1="-180.623" x2="876.184" y2="573.08" gradientUnits="userSpaceOnUse">
<stop stop-color="#9C9C9C"/>
<stop offset="1" stop-color="#17181A"/>
</linearGradient>
<linearGradient id="paint18_linear_1_328" x1="458.869" y1="-195.061" x2="875.409" y2="591.313" gradientUnits="userSpaceOnUse">
<stop stop-color="#9C9C9C"/>
<stop offset="1" stop-color="#17181A"/>
</linearGradient>
<linearGradient id="paint19_linear_1_328" x1="440.961" y1="-209.525" x2="874.758" y2="609.495" gradientUnits="userSpaceOnUse">
<stop stop-color="#9C9C9C"/>
<stop offset="1" stop-color="#17181A"/>
</linearGradient>
</defs>
</svg>
