<svg width="1088" height="572" viewBox="0 0 1088 572" fill="none" xmlns="http://www.w3.org/2000/svg">
<path d="M939.988 94.3556C871.167 64.7417 766.186 109.723 743.292 166.993C718.018 230.246 850.999 364.462 876.545 370.625C902.091 376.789 819.272 213.238 877.218 193.672C941.546 171.967 1031.61 272.147 1048.98 251.625C1066.06 231.436 1019.54 128.589 939.988 94.3556Z" stroke="url(#paint0_linear_1_160)" stroke-miterlimit="10"/>
<path d="M931.48 73.3787C857.842 32.3556 737.314 94.0911 714.898 161.449C689.526 237.759 845.768 373.007 874.327 388.265C898.935 401.428 832.833 231.902 896.953 201.691C966.603 168.851 1056.69 251.253 1063.36 233.064C1070.5 213.548 1017.83 121.569 931.48 73.3787Z" stroke="url(#paint1_linear_1_160)" stroke-miterlimit="10"/>
<path d="M922.959 52.414C844.654 0.0191378 708.497 78.4959 686.517 155.894C661.052 245.371 839.612 380.19 872.097 405.918C895.755 424.58 846.43 250.734 916.7 209.671C991.654 165.884 1084.31 231.755 1077.66 214.585C1077.67 197.304 1016.3 114.848 922.959 52.414Z" stroke="url(#paint2_linear_1_160)" stroke-miterlimit="10"/>
<path d="M914.489 31.4017C831.431 -32.2032 679.772 62.9004 658.203 150.362C632.83 252.954 826.202 397.788 869.948 423.581C897.354 439.732 860.151 269.653 936.476 217.709C1016.81 163.052 1110.71 211.585 1092.05 196.105C1083.48 180.23 1014.69 108.177 914.489 31.4017Z" stroke="url(#paint3_linear_1_160)" stroke-miterlimit="10"/>
<path d="M905.941 10.4574C818.122 -64.2917 651.025 47.3816 629.727 144.803C604.408 260.572 817.588 403.668 867.648 441.206C895.753 462.26 873.74 288.603 956.129 225.712C1041.82 160.171 1135.29 195.952 1106.3 177.575C1087.74 165.794 1013.03 101.595 905.941 10.4574Z" stroke="url(#paint4_linear_1_160)" stroke-miterlimit="10"/>
<path d="M897.449 -10.5026C804.789 -96.3545 622.32 31.8585 601.348 139.249C576.139 268.23 822.871 397.588 865.383 458.92C887.437 490.68 887.418 307.678 975.828 233.766C1067.04 157.567 1162.7 175.705 1120.58 159.119C1094.42 148.742 1011.35 95.0653 897.449 -10.5026Z" stroke="url(#paint5_linear_1_160)" stroke-miterlimit="10"/>
<path d="M888.929 -31.4676C791.443 -128.406 593.691 16.2934 572.94 133.69C547.895 275.892 818.234 402.978 863.203 476.499C885.199 512.472 901.169 326.657 995.586 241.708C1092.28 154.712 1189.61 154.999 1134.95 140.543C1100.66 131.483 1009.65 88.5581 888.929 -31.4676Z" stroke="url(#paint6_linear_1_160)" stroke-miterlimit="10"/>
<path d="M880.418 -52.4482C778.068 -160.44 565.026 0.840141 544.543 128.142C519.619 283.518 813.941 408.367 860.97 494.147C883.03 534.367 914.947 345.691 1015.32 249.723C1117.49 152.022 1216.19 134.344 1149.27 122.037C1106.71 114.19 1007.88 82.0496 880.418 -52.4482Z" stroke="url(#paint7_linear_1_160)" stroke-miterlimit="10"/>
<path d="M871.911 -73.4243C764.685 -192.457 536.332 -14.722 516.151 122.599C491.376 291.18 809.856 413.833 858.729 511.81C880.936 556.344 928.706 364.778 1035.03 257.737C1142.72 149.325 1242.64 113.766 1163.59 103.534C1112.63 96.9071 1006.14 75.6042 871.911 -73.4243Z" stroke="url(#paint8_linear_1_160)" stroke-miterlimit="10"/>
<path d="M863.389 -94.3905C751.164 -224.498 507.691 -30.2496 487.769 117.043C463.128 298.786 806.022 419.299 856.523 529.438C878.947 578.338 942.5 383.83 1054.76 265.728C1167.98 146.62 1269.08 93.2404 1177.93 84.9916C1118.49 79.6409 1004.34 69.1486 863.389 -94.3905Z" stroke="url(#paint9_linear_1_160)" stroke-miterlimit="10"/>
<path d="M854.881 -115.368C737.848 -256.492 479.022 -45.8087 459.375 111.498C434.953 306.498 802.344 424.91 854.293 547.089C876.989 600.39 956.311 402.926 1074.5 273.746C1193.26 143.931 1295.41 72.7091 1192.25 66.4877C1124.32 62.3818 1002.52 62.6888 854.881 -115.368Z" stroke="url(#paint10_linear_1_160)" stroke-miterlimit="10"/>
<path d="M846.373 -136.347C724.423 -288.505 450.438 -61.2742 430.98 105.953C406.762 314.167 798.647 430.424 852.101 564.705C875.058 622.446 970.095 422.016 1094.26 281.712C1218.57 141.218 1321.77 52.1969 1206.61 47.9487C1130.14 45.1491 1000.7 56.228 846.373 -136.347Z" stroke="url(#paint11_linear_1_160)" stroke-miterlimit="10"/>
<path d="M837.853 -157.31C710.973 -320.519 421.763 -76.7381 402.601 100.399C378.573 321.838 795.077 436.055 849.861 582.396C873.147 644.603 983.947 441.106 1113.97 289.755C1243.99 138.405 1348.06 31.7564 1220.94 29.4355C1135.95 27.915 998.858 49.7932 837.853 -157.31Z" stroke="url(#paint12_linear_1_160)" stroke-miterlimit="10"/>
<path d="M829.346 -178.288C697.522 -352.534 393.201 -92.3067 374.193 94.839C350.331 329.554 791.525 441.782 847.617 600.031C871.247 666.746 997.77 460.19 1133.69 297.758C1269.12 135.88 1374.37 11.3299 1235.23 10.9392C1141.73 10.6907 997.025 43.3452 829.346 -178.288Z" stroke="url(#paint13_linear_1_160)" stroke-miterlimit="10"/>
<path d="M820.834 -199.268C684.067 -384.553 364.951 -107.706 345.839 89.3393C322.706 337.367 788.182 447.487 845.439 617.716C869.401 688.949 1011.65 479.334 1153.45 305.805C1294.45 133.252 1400.73 -9.06346 1249.6 -7.53122C1147.52 -6.53651 995.134 36.8857 820.834 -199.268Z" stroke="url(#paint14_linear_1_160)" stroke-miterlimit="10"/>
<path d="M812.315 -220.232C670.605 -416.556 336.313 -123.231 317.429 83.7265C294.407 344.993 784.784 453.078 843.193 635.298C867.528 711.071 1025.47 498.365 1173.18 313.715C1319.78 130.491 1427.03 -29.5701 1263.95 -26.1377C1153.31 -23.7594 993.275 30.4349 812.315 -220.232Z" stroke="url(#paint15_linear_1_160)" stroke-miterlimit="10"/>
<path d="M803.807 -241.21C657.07 -448.639 307.646 -138.763 289.023 78.1931C266.265 352.562 781.303 458.883 840.95 652.96C865.689 733.358 1039.66 517.832 1192.86 321.751C1345.41 128.196 1453.28 -49.9514 1278.22 -44.596C1159.08 -40.9729 991.388 23.9775 803.807 -241.21Z" stroke="url(#paint16_linear_1_160)" stroke-miterlimit="10"/>
<path d="M795.299 -262.185C643.325 -480.391 278.979 -154.294 260.629 72.6501C237.957 360.282 777.926 464.653 838.735 670.628C863.789 755.503 1053.43 536.854 1212.6 329.771C1370.65 125.461 1479.56 -70.3538 1292.54 -63.1255C1164.86 -58.1846 989.087 17.7791 795.299 -262.185Z" stroke="url(#paint17_linear_1_160)" stroke-miterlimit="10"/>
<path d="M786.776 -283.155C629.923 -512.456 250.351 -169.809 232.233 67.1022C209.709 367.912 774.574 470.423 836.502 688.276C861.931 777.717 1067.23 555.865 1232.32 337.77C1395.89 122.721 1505.87 -90.7566 1306.86 -81.6325C1170.52 -75.3912 987.288 11.2661 786.776 -283.155Z" stroke="url(#paint18_linear_1_160)" stroke-miterlimit="10"/>
<path d="M778.268 -304.131C616.522 -544.517 221.669 -185.355 203.852 61.5474C181.515 375.528 771.24 476.24 834.285 705.916C860.089 799.951 1081.05 575.015 1252 345.807C1421.01 119.941 1532.02 -111.504 1321.16 -100.112C1176.32 -92.8828 985.504 4.74576 778.268 -304.131Z" stroke="url(#paint19_linear_1_160)" stroke-miterlimit="10"/>
<path d="M769.762 -325.107C603.162 -576.611 192.949 -200.922 175.46 56.0043C153.247 383.213 767.907 482.057 832.108 723.523C858.302 822.167 1094.81 593.928 1271.83 353.746C1446.37 117.239 1558.39 -131.73 1335.53 -118.66C1182.12 -109.943 983.687 -1.68533 769.762 -325.107Z" stroke="url(#paint20_linear_1_160)" stroke-miterlimit="10"/>
<path d="M1349.84 -137.181C1187.93 -127.016 981.91 -8.30063 761.24 -346.074C589.708 -608.655 164.349 -216.43 147.051 50.4431C125.002 390.873 764.572 487.872 829.838 741.207C882.6 946.085 1823.35 -166.925 1349.84 -137.181Z" stroke="url(#paint21_linear_1_160)" stroke-miterlimit="10"/>
<defs>
<linearGradient id="paint0_linear_1_160" x1="986.308" y1="122.279" x2="793.876" y2="295.067" gradientUnits="userSpaceOnUse">
<stop stop-color="#9C9C9C"/>
<stop offset="1" stop-color="#17181A"/>
</linearGradient>
<linearGradient id="paint1_linear_1_160" x1="981.812" y1="105.152" x2="771.188" y2="294.274" gradientUnits="userSpaceOnUse">
<stop stop-color="#9C9C9C"/>
<stop offset="1" stop-color="#17181A"/>
</linearGradient>
<linearGradient id="paint2_linear_1_160" x1="980.887" y1="89.7868" x2="750.213" y2="296.911" gradientUnits="userSpaceOnUse">
<stop stop-color="#9C9C9C"/>
<stop offset="1" stop-color="#17181A"/>
</linearGradient>
<linearGradient id="paint3_linear_1_160" x1="985.354" y1="74.8715" x2="728.426" y2="305.57" gradientUnits="userSpaceOnUse">
<stop stop-color="#9C9C9C"/>
<stop offset="1" stop-color="#17181A"/>
</linearGradient>
<linearGradient id="paint4_linear_1_160" x1="996.904" y1="53.9797" x2="709.403" y2="312.13" gradientUnits="userSpaceOnUse">
<stop stop-color="#9C9C9C"/>
<stop offset="1" stop-color="#17181A"/>
</linearGradient>
<linearGradient id="paint5_linear_1_160" x1="1010.84" y1="31.0386" x2="693.768" y2="315.746" gradientUnits="userSpaceOnUse">
<stop stop-color="#9C9C9C"/>
<stop offset="1" stop-color="#17181A"/>
</linearGradient>
<linearGradient id="paint6_linear_1_160" x1="1025.19" y1="7.61052" x2="674.623" y2="322.393" gradientUnits="userSpaceOnUse">
<stop stop-color="#9C9C9C"/>
<stop offset="1" stop-color="#17181A"/>
</linearGradient>
<linearGradient id="paint7_linear_1_160" x1="1039.68" y1="-15.8051" x2="655.422" y2="329.23" gradientUnits="userSpaceOnUse">
<stop stop-color="#9C9C9C"/>
<stop offset="1" stop-color="#17181A"/>
</linearGradient>
<linearGradient id="paint8_linear_1_160" x1="1054.3" y1="-39.2085" x2="636.172" y2="336.231" gradientUnits="userSpaceOnUse">
<stop stop-color="#9C9C9C"/>
<stop offset="1" stop-color="#17181A"/>
</linearGradient>
<linearGradient id="paint9_linear_1_160" x1="1069.06" y1="-62.5815" x2="616.954" y2="343.369" gradientUnits="userSpaceOnUse">
<stop stop-color="#9C9C9C"/>
<stop offset="1" stop-color="#17181A"/>
</linearGradient>
<linearGradient id="paint10_linear_1_160" x1="1083.93" y1="-85.8371" x2="597.763" y2="350.701" gradientUnits="userSpaceOnUse">
<stop stop-color="#9C9C9C"/>
<stop offset="1" stop-color="#17181A"/>
</linearGradient>
<linearGradient id="paint11_linear_1_160" x1="1098.98" y1="-109.017" x2="578.64" y2="358.2" gradientUnits="userSpaceOnUse">
<stop stop-color="#9C9C9C"/>
<stop offset="1" stop-color="#17181A"/>
</linearGradient>
<linearGradient id="paint12_linear_1_160" x1="1114.13" y1="-132.051" x2="559.6" y2="365.871" gradientUnits="userSpaceOnUse">
<stop stop-color="#9C9C9C"/>
<stop offset="1" stop-color="#17181A"/>
</linearGradient>
<linearGradient id="paint13_linear_1_160" x1="1129.37" y1="-154.925" x2="540.606" y2="373.733" gradientUnits="userSpaceOnUse">
<stop stop-color="#9C9C9C"/>
<stop offset="1" stop-color="#17181A"/>
</linearGradient>
<linearGradient id="paint14_linear_1_160" x1="1144.87" y1="-177.611" x2="521.939" y2="381.73" gradientUnits="userSpaceOnUse">
<stop stop-color="#9C9C9C"/>
<stop offset="1" stop-color="#17181A"/>
</linearGradient>
<linearGradient id="paint15_linear_1_160" x1="1160.48" y1="-200.289" x2="503.19" y2="389.897" gradientUnits="userSpaceOnUse">
<stop stop-color="#9C9C9C"/>
<stop offset="1" stop-color="#17181A"/>
</linearGradient>
<linearGradient id="paint16_linear_1_160" x1="1176.2" y1="-222.651" x2="484.64" y2="398.31" gradientUnits="userSpaceOnUse">
<stop stop-color="#9C9C9C"/>
<stop offset="1" stop-color="#17181A"/>
</linearGradient>
<linearGradient id="paint17_linear_1_160" x1="1192.05" y1="-244.969" x2="466.096" y2="406.873" gradientUnits="userSpaceOnUse">
<stop stop-color="#9C9C9C"/>
<stop offset="1" stop-color="#17181A"/>
</linearGradient>
<linearGradient id="paint18_linear_1_160" x1="1208.05" y1="-267.131" x2="447.717" y2="415.579" gradientUnits="userSpaceOnUse">
<stop stop-color="#9C9C9C"/>
<stop offset="1" stop-color="#17181A"/>
</linearGradient>
<linearGradient id="paint19_linear_1_160" x1="1224.2" y1="-289.169" x2="429.473" y2="424.424" gradientUnits="userSpaceOnUse">
<stop stop-color="#9C9C9C"/>
<stop offset="1" stop-color="#17181A"/>
</linearGradient>
<linearGradient id="paint20_linear_1_160" x1="1240.42" y1="-311.113" x2="411.262" y2="433.401" gradientUnits="userSpaceOnUse">
<stop stop-color="#9C9C9C"/>
<stop offset="1" stop-color="#17181A"/>
</linearGradient>
<linearGradient id="paint21_linear_1_160" x1="1256.72" y1="-332.892" x2="393.166" y2="442.508" gradientUnits="userSpaceOnUse">
<stop stop-color="#9C9C9C"/>
<stop offset="1" stop-color="#17181A"/>
</linearGradient>
</defs>
</svg>
