<svg width="21" height="17" viewBox="0 0 21 17" fill="none" xmlns="http://www.w3.org/2000/svg">
<path d="M2 14.0183C3.93756 14.1274 5.63187 13.6744 7.28425 12.475C5.6151 12.1898 4.4576 11.4265 3.82852 9.84963C4.31501 9.78253 4.74278 9.90834 5.24605 9.70704C3.60206 8.9857 2.53681 7.90368 2.49488 6.03323C3.01491 6.07516 3.40914 6.41906 4.02983 6.36873C2.52004 4.8925 2.05871 3.28206 3.00652 1.32773C4.58341 3.13947 6.42871 4.37246 8.685 4.95121C8.81082 4.98476 8.92824 5.01831 9.05405 5.04348C9.6328 5.17768 10.3206 5.46286 10.6729 5.42092C11.2768 5.34543 10.6729 4.64926 10.8239 3.74338C11.302 0.925117 14.4054 -0.358201 16.7036 1.29418C17.3747 1.78066 17.9031 1.77227 18.5657 1.47871C18.9096 1.32773 19.2619 1.17675 19.6729 1.00061C19.5806 1.80583 18.9599 2.25037 18.4651 2.8459C19.027 2.97172 19.48 2.81235 20 2.6446C19.8239 3.22335 19.3877 3.55047 18.9935 3.8692C18.5825 4.19632 18.4231 4.54022 18.4063 5.07703C18.1547 13.2047 8.91986 19.4871 2.60392 14.488C1.99162 14.0015 2.58714 14.488 2 14.0183Z" stroke="#fff"/>
</svg>
